<?xml version="1.0" encoding="utf-8"?>
<!-- Generator: Adobe Illustrator 27.6.1, SVG Export Plug-In . SVG Version: 6.00 Build 0)  -->
<svg version="1.1" id="Livello_1" xmlns="http://www.w3.org/2000/svg" xmlns:xlink="http://www.w3.org/1999/xlink" x="0px" y="0px"
	 viewBox="0 0 2606 2610" style="enable-background:new 0 0 2606 2610;" xml:space="preserve">
<style type="text/css">
	.st0{fill:#666666;}
	.st1{fill:#666666;stroke:#666666;stroke-width:2;stroke-miterlimit:9.9999;}
	.st2{stroke:#000000;stroke-width:2;stroke-miterlimit:10;}
</style>
<g>
	<g>
		
			<rect x="-431.71" y="1467.03" transform="matrix(0.7071 -0.7071 0.7071 0.7071 -703.0222 1239.587)" class="st0" width="3153.03" height="2.77"/>
	</g>
	<g>
		
			<rect x="1637.79" y="877.64" transform="matrix(0.7071 -0.7071 0.7071 0.7071 -209.0623 1444.9994)" class="st1" width="3.9" height="194.44"/>
	</g>
	<g>
		
			<rect x="1252.88" y="1262.65" transform="matrix(0.7071 -0.7071 0.7071 0.7071 -594.0462 1285.5994)" class="st1" width="3.9" height="194.44"/>
	</g>
	<g>
		
			<rect x="1561.87" y="1006.59" transform="matrix(0.7071 -0.7071 0.7071 0.7071 -286.1295 1413.2198)" class="st0" width="1.95" height="90.81"/>
	</g>
	<g>
		
			<rect x="1176.76" y="1391.41" transform="matrix(0.7071 -0.7071 0.7071 0.7071 -671.0325 1253.6223)" class="st0" width="1.95" height="90.81"/>
	</g>
	<g>
		
			<rect x="1484.9" y="1083.43" transform="matrix(0.7071 -0.7071 0.7071 0.7071 -363.0083 1381.3)" class="st0" width="1.95" height="90.81"/>
	</g>
	<g>
		
			<rect x="1099.99" y="1468.45" transform="matrix(0.7071 -0.7071 0.7071 0.7071 -747.9927 1221.8997)" class="st0" width="1.95" height="90.81"/>
	</g>
	<g>
		
			<rect x="1407.72" y="1160.49" transform="matrix(0.7071 -0.7071 0.7071 0.7071 -440.1009 1349.2988)" class="st0" width="1.95" height="90.81"/>
	</g>
	<g>
		
			<rect x="1022.99" y="1545.3" transform="matrix(0.7071 -0.7071 0.7071 0.7071 -824.8881 1189.9639)" class="st0" width="1.95" height="90.82"/>
	</g>
	<g>
		
			<rect x="1330.93" y="1237.52" transform="matrix(0.7071 -0.7071 0.7071 0.7071 -517.061 1317.5597)" class="st0" width="1.95" height="90.81"/>
	</g>
	<g>
		
			<rect x="945.83" y="1622.34" transform="matrix(0.7071 -0.7071 0.7071 0.7071 -901.9639 1157.9626)" class="st0" width="1.95" height="90.82"/>
	</g>
	<g>
		
			<rect x="483.24" y="2032.5" transform="matrix(0.7071 -0.7071 0.7071 0.7071 -1363.8345 966.8639)" class="st1" width="3.9" height="194.44"/>
	</g>
	<g>
		
			<rect x="867.96" y="1647.66" transform="matrix(0.7071 -0.7071 0.7071 0.7071 -979.031 1126.1825)" class="st1" width="3.9" height="194.44"/>
	</g>
	<g>
		
			<rect x="176.21" y="2392.18" transform="matrix(0.7071 -0.7071 0.7071 0.7071 -1671.7356 839.2438)" class="st0" width="1.95" height="90.82"/>
	</g>
	<g>
		
			<rect x="561.12" y="2007.16" transform="matrix(0.7071 -0.7071 0.7071 0.7071 -1286.7516 998.644)" class="st0" width="1.95" height="90.82"/>
	</g>
	<g>
		
			<rect x="252.99" y="2315.14" transform="matrix(0.7071 -0.7071 0.7071 0.7071 -1594.775 870.9666)" class="st0" width="1.95" height="90.82"/>
	</g>
	<g>
		
			<rect x="638.09" y="1930.32" transform="matrix(0.7071 -0.7071 0.7071 0.7071 -1209.8723 1030.5637)" class="st0" width="1.95" height="90.82"/>
	</g>
	<g>
		
			<rect x="330.17" y="2238.11" transform="matrix(0.7071 -0.7071 0.7071 0.7071 -1517.6993 902.9839)" class="st0" width="1.95" height="90.82"/>
	</g>
	<g>
		
			<rect x="714.89" y="1853.27" transform="matrix(0.7071 -0.7071 0.7071 0.7071 -1132.8959 1062.3029)" class="st0" width="1.95" height="90.82"/>
	</g>
	<g>
		
			<rect x="407.15" y="2161.25" transform="matrix(0.7071 -0.7071 0.7071 0.7071 -1440.8038 934.9034)" class="st0" width="1.95" height="90.82"/>
	</g>
	<g>
		
			<rect x="445.65" y="2122.82" transform="matrix(0.7071 -0.7071 0.7071 0.7071 -1402.3567 950.8718)" class="st0" width="1.95" height="90.82"/>
	</g>
	<g>
		
			<rect x="830.56" y="1737.8" transform="matrix(0.7071 -0.7071 0.7071 0.7071 -1017.3716 1110.2717)" class="st0" width="1.95" height="90.82"/>
	</g>
	<g>
		
			<rect x="1215.46" y="1352.79" transform="matrix(0.7071 -0.7071 0.7071 0.7071 -632.3875 1269.6719)" class="st0" width="1.95" height="90.81"/>
	</g>
	<g>
		
			<rect x="1600.37" y="968.17" transform="matrix(0.7071 -0.7071 0.7071 0.7071 -247.682 1429.1877)" class="st0" width="1.95" height="90.81"/>
	</g>
	<g>
		
			<rect x="792.06" y="1776.23" transform="matrix(0.7071 -0.7071 0.7071 0.7071 -1055.8196 1094.3038)" class="st0" width="1.95" height="90.82"/>
	</g>
	<g>
		
			<rect x="1523.4" y="1045.01" transform="matrix(0.7071 -0.7071 0.7071 0.7071 -324.5606 1397.2681)" class="st0" width="1.95" height="90.81"/>
	</g>
	<g>
		
			<rect x="1138.48" y="1430.04" transform="matrix(0.7071 -0.7071 0.7071 0.7071 -709.5613 1237.8679)" class="st0" width="1.95" height="90.81"/>
	</g>
	<g>
		
			<rect x="1445.6" y="1090.76" transform="matrix(0.7071 -0.7071 0.7071 0.7071 -401.5546 1365.291)" class="st1" width="3.34" height="153.22"/>
	</g>
	<g>
		
			<rect x="1060.8" y="1474.06" transform="matrix(0.7071 -0.7071 0.7071 0.7071 -786.5797 1205.9895)" class="st1" width="3.34" height="156.84"/>
	</g>
	<g>
		
			<rect x="1369.43" y="1199.09" transform="matrix(0.7071 -0.7071 0.7071 0.7071 -478.6135 1333.5278)" class="st0" width="1.95" height="90.81"/>
	</g>
	<g>
		
			<rect x="984.33" y="1583.91" transform="matrix(0.7071 -0.7071 0.7071 0.7071 -863.5164 1173.9308)" class="st0" width="1.95" height="90.82"/>
	</g>
	<g>
		
			<rect x="1292.43" y="1275.95" transform="matrix(0.7071 -0.7071 0.7071 0.7071 -555.5085 1301.5916)" class="st0" width="1.95" height="90.81"/>
	</g>
	<g>
		
			<rect x="907.53" y="1660.96" transform="matrix(0.7071 -0.7071 0.7071 0.7071 -940.4933 1142.1918)" class="st0" width="1.95" height="90.82"/>
	</g>
	<g>
		
			<rect x="137.72" y="2430.6" transform="matrix(0.7071 -0.7071 0.7071 0.7071 -1710.1836 823.2759)" class="st0" width="1.95" height="90.82"/>
	</g>
	<g>
		
			<rect x="522.42" y="2045.78" transform="matrix(0.7071 -0.7071 0.7071 0.7071 -1325.3958 982.5943)" class="st0" width="1.95" height="90.82"/>
	</g>
	<g>
		
			<rect x="214.68" y="2353.76" transform="matrix(0.7071 -0.7071 0.7071 0.7071 -1633.3044 855.1953)" class="st0" width="1.95" height="90.82"/>
	</g>
	<g>
		
			<rect x="599.61" y="1968.75" transform="matrix(0.7071 -0.7071 0.7071 0.7071 -1248.3201 1014.612)" class="st0" width="1.95" height="90.82"/>
	</g>
	<g>
		
			<rect x="290.99" y="2245.93" transform="matrix(0.7071 -0.7071 0.7071 0.7071 -1556.27 887.0734)" class="st1" width="3.34" height="152.38"/>
	</g>
	<g>
		
			<rect x="675.75" y="1855.96" transform="matrix(0.7071 -0.7071 0.7071 0.7071 -1171.4247 1046.5315)" class="st1" width="3.62" height="162.69"/>
	</g>
	<g>
		
			<rect x="368.65" y="2199.67" transform="matrix(0.7071 -0.7071 0.7071 0.7071 -1479.2516 918.9356)" class="st0" width="1.95" height="90.82"/>
	</g>
	<g>
		
			<rect x="753.36" y="1814.85" transform="matrix(0.7071 -0.7071 0.7071 0.7071 -1094.4645 1078.2543)" class="st0" width="1.95" height="90.82"/>
	</g>
	<g>
		<path class="st0" d="M1140.95,1275.72c2.79-0.56,8.64-2.79,12.81-7.24c7.8-7.8,5.29-15.32,1.39-18.94
			c-6.41-6.13-14.76-3.34-20.61,2.51l-3.34,3.34l-4.46-4.46l3.34-3.34c4.46-4.46,7.8-12.26,2.51-17.55
			c-3.62-3.62-8.91-4.46-14.76,1.11c-3.62,3.62-5.57,8.64-6.13,11.98l-6.13-2.79c0.56-4.18,3.34-10.31,8.36-15.32
			c8.91-8.91,18.11-7.52,23.68-2.23c4.74,4.74,5.85,11.42,2.23,18.94v0.28c6.69-4.46,15.32-4.74,21.45,1.67
			c7.24,7.24,7.8,18.94-2.79,29.81c-5.01,5.01-11.14,7.8-14.76,8.64L1140.95,1275.72z"/>
	</g>
	<g>
		<path class="st0" d="M352.86,2000.86L352.86,2000.86l-3.62,12.26l-5.85-3.34l4.46-15.04l5.29-5.29l44.85,44.85l-5.85,5.85
			L352.86,2000.86z"/>
	</g>
	<g>
		<path class="st0" d="M1552.41,879.86l-12.26-12.26l-20.89,20.89l-3.9-3.9l-8.64-48.75l6.69-6.69l27.86,27.86l6.41-6.41l4.74,4.74
			l-6.41,6.41l12.26,12.26L1552.41,879.86z M1535.41,862.87l-15.04-15.04c-2.23-2.23-4.74-4.74-6.96-7.24l-0.28,0.28
			c1.39,3.9,1.95,6.96,2.79,10.31l4.18,26.19v0.28L1535.41,862.87z"/>
	</g>
	<g>
		<path class="st0" d="M765.15,1667.12l-3.62-3.62v-9.47c0.56-22.29,0-33.43-6.69-40.11c-4.46-4.46-10.86-6.69-17.83,0.28
			c-4.18,4.18-5.29,9.47-5.85,13.37l-6.13-2.23c0.56-5.85,3.06-11.98,8.08-17.27c9.75-9.75,20.34-7.24,26.74-0.56
			c8.36,8.36,8.91,20.89,8.64,39.56l-0.28,6.96v0.28l20.06-20.06l5.01,5.01L765.15,1667.12z"/>
	</g>
	<g>
		
			<rect x="2023.39" y="492.11" transform="matrix(0.7071 -0.7071 0.7071 0.7071 176.4839 1604.7437)" class="st1" width="3.9" height="194.44"/>
	</g>
	<g>
		
			<rect x="1716.53" y="852" transform="matrix(0.7071 -0.7071 0.7071 0.7071 -131.5146 1477.3041)" class="st0" width="1.95" height="90.81"/>
	</g>
	<g>
		
			<rect x="2101.44" y="466.98" transform="matrix(0.7071 -0.7071 0.7071 0.7071 253.4699 1636.7042)" class="st0" width="1.95" height="90.81"/>
	</g>
	<g>
		
			<rect x="1793.5" y="774.76" transform="matrix(0.7071 -0.7071 0.7071 0.7071 -54.3571 1509.1083)" class="st0" width="1.95" height="90.81"/>
	</g>
	<g>
		
			<rect x="2178.43" y="390.15" transform="matrix(0.7071 -0.7071 0.7071 0.7071 330.3483 1668.6404)" class="st0" width="1.95" height="90.81"/>
	</g>
	<g>
		
			<rect x="1870.5" y="697.91" transform="matrix(0.7071 -0.7071 0.7071 0.7071 22.5381 1541.0441)" class="st0" width="1.95" height="90.81"/>
	</g>
	<g>
		
			<rect x="1947.47" y="621.07" transform="matrix(0.7071 -0.7071 0.7071 0.7071 99.4169 1572.9642)" class="st0" width="1.95" height="90.81"/>
	</g>
	<g>
		
			<rect x="1985.77" y="582.44" transform="matrix(0.7071 -0.7071 0.7071 0.7071 137.9462 1588.735)" class="st0" width="1.95" height="90.81"/>
	</g>
	<g>
		
			<rect x="1678.03" y="890.42" transform="matrix(0.7071 -0.7071 0.7071 0.7071 -169.9624 1461.3362)" class="st0" width="1.95" height="90.81"/>
	</g>
	<g>
		
			<rect x="2062.94" y="505.41" transform="matrix(0.7071 -0.7071 0.7071 0.7071 215.0219 1620.7362)" class="st0" width="1.95" height="90.81"/>
	</g>
	<g>
		
			<rect x="1754.83" y="813.37" transform="matrix(0.7071 -0.7071 0.7071 0.7071 -92.9856 1493.075)" class="st0" width="1.95" height="90.81"/>
	</g>
	<g>
		
			<rect x="2139.94" y="428.55" transform="matrix(0.7071 -0.7071 0.7071 0.7071 291.9174 1652.6724)" class="st0" width="1.95" height="90.81"/>
	</g>
	<g>
		
			<rect x="1831.3" y="703.52" transform="matrix(0.7071 -0.7071 0.7071 0.7071 -16.049 1525.134)" class="st1" width="3.34" height="156.84"/>
	</g>
	<g>
		
			<rect x="2216.11" y="316.32" transform="matrix(0.7071 -0.7071 0.7071 0.7071 368.9762 1684.4359)" class="st1" width="3.34" height="161.02"/>
	</g>
	<g>
		
			<rect x="1908.99" y="659.5" transform="matrix(0.7071 -0.7071 0.7071 0.7071 60.9689 1557.0126)" class="st0" width="1.95" height="90.81"/>
	</g>
	<g>
		<path class="st0" d="M1906.76,440.55l-17.83,17.83l10.31,13.93c0.84-1.11,1.95-2.51,3.62-4.18c3.62-3.62,8.08-6.41,12.54-7.52
			c5.85-1.67,12.81-0.56,18.94,5.29c9.19,9.19,8.64,23.4-1.39,33.43c-5.01,5.01-10.86,8.08-14.49,8.91l-3.34-6.41
			c3.06-0.84,8.36-3.06,12.54-7.52c6.13-6.13,7.24-15.04,0.84-21.45c-6.13-6.13-14.49-6.41-23.96,3.06
			c-2.79,2.79-4.46,5.01-6.13,6.96l-19.5-25.63l22.56-22.56L1906.76,440.55z"/>
	</g>
	<g>
		<circle class="st0" cx="99.07" cy="2513.71" r="11.7"/>
	</g>
	<g>
		<rect x="92.96" y="1.72" width="9.73" height="2613.4"/>
	</g>
	<g>
		<rect x="1.85" y="1969.66" class="st2" width="194.45" height="3.9"/>
	</g>
	<g>
		<rect x="1.85" y="1425.04" class="st2" width="194.45" height="3.9"/>
	</g>
	<g>
		<rect x="53.67" y="2406.18" width="90.82" height="1.95"/>
	</g>
	<g>
		<rect x="53.67" y="1861.57" width="90.82" height="1.95"/>
	</g>
	<g>
		<rect x="53.67" y="2297.26" width="90.82" height="1.95"/>
	</g>
	<g>
		<rect x="53.67" y="1752.64" width="90.82" height="1.95"/>
	</g>
	<g>
		<rect x="53.67" y="2188.34" width="90.82" height="1.95"/>
	</g>
	<g>
		<rect x="53.67" y="1643.72" width="90.82" height="1.95"/>
	</g>
	<g>
		<rect x="53.67" y="2079.41" width="90.82" height="1.95"/>
	</g>
	<g>
		<rect x="53.67" y="2024.81" width="90.82" height="1.95"/>
	</g>
	<g>
		<rect x="53.67" y="1534.8" width="90.82" height="1.95"/>
	</g>
	<g>
		<rect x="53.67" y="1480.48" width="90.82" height="1.95"/>
	</g>
	<g>
		<rect x="1.85" y="335.8" class="st2" width="194.45" height="3.9"/>
	</g>
	<g>
		<rect x="1.85" y="880.42" class="st2" width="194.45" height="3.9"/>
	</g>
	<g>
		<rect x="53.67" y="445.84" width="90.82" height="1.95"/>
	</g>
	<g>
		<rect x="53.67" y="391.24" width="90.82" height="1.95"/>
	</g>
	<g>
		<rect x="53.67" y="990.46" width="90.82" height="1.95"/>
	</g>
	<g>
		<rect x="53.67" y="935.86" width="90.82" height="1.95"/>
	</g>
	<g>
		<rect x="53.67" y="554.77" width="90.82" height="1.95"/>
	</g>
	<g>
		<rect x="53.67" y="1099.1" width="90.82" height="1.95"/>
	</g>
	<g>
		<rect x="53.67" y="663.69" width="90.82" height="1.95"/>
	</g>
	<g>
		<rect x="53.67" y="1208.03" width="90.82" height="1.95"/>
	</g>
	<g>
		<rect x="53.67" y="772.61" width="90.82" height="1.95"/>
	</g>
	<g>
		<rect x="53.67" y="1316.95" width="90.82" height="1.95"/>
	</g>
	<g>
		<rect x="53.67" y="2460.51" width="90.82" height="1.95"/>
	</g>
	<g>
		<rect x="53.67" y="1916.17" width="90.82" height="1.95"/>
	</g>
	<g>
		<rect x="53.67" y="2351.58" width="90.82" height="1.95"/>
	</g>
	<g>
		<rect x="53.67" y="1807.25" width="90.82" height="1.95"/>
	</g>
	<g>
		<rect x="27.48" y="2242.66" class="st2" width="143.19" height="1.95"/>
	</g>
	<g>
		<rect x="27.48" y="1698.32" class="st2" width="143.19" height="1.95"/>
	</g>
	<g>
		<rect x="53.67" y="2134.02" width="90.82" height="1.95"/>
	</g>
	<g>
		<rect x="53.67" y="1589.4" width="90.82" height="1.95"/>
	</g>
	<g>
		<rect x="53.67" y="500.16" width="90.82" height="1.95"/>
	</g>
	<g>
		<rect x="53.67" y="1044.78" width="90.82" height="1.95"/>
	</g>
	<g>
		<rect x="27.48" y="609.09" class="st2" width="143.19" height="1.95"/>
	</g>
	<g>
		<rect x="27.48" y="1153.71" class="st2" width="143.19" height="1.95"/>
	</g>
	<g>
		<rect x="53.67" y="718.01" width="90.82" height="1.95"/>
	</g>
	<g>
		<rect x="53.67" y="1262.63" width="90.82" height="1.95"/>
	</g>
	<g>
		<rect x="53.67" y="826.94" width="90.82" height="1.95"/>
	</g>
	<g>
		<rect x="53.67" y="1371.55" width="90.82" height="1.95"/>
	</g>
	<g>
		<path d="M249.51,1951.83L249.51,1951.83l-11.14,5.85l-1.67-6.69l13.93-7.52h7.24v63.52h-8.36V1951.83z"/>
	</g>
	<g>
		<path d="M226.94,1462.09v-5.29l6.69-6.41c16.16-15.32,23.4-23.68,23.68-33.15c0-6.41-3.06-12.54-12.54-12.54
			c-5.85,0-10.59,3.06-13.37,5.29l-2.79-6.13c4.46-3.62,10.59-6.41,17.83-6.41c13.65,0,19.5,9.47,19.5,18.39
			c0,11.7-8.64,21.17-22.01,33.99l-5.01,4.74v0.28h28.41v7.24L226.94,1462.09L226.94,1462.09z"/>
	</g>
	<g>
		<path d="M229.73,902.15c2.51,1.67,8.08,3.9,14.21,3.9c11.14,0,14.49-6.96,14.49-12.26c0-8.91-8.08-12.81-16.44-12.81h-4.74v-6.41
			h4.74c6.13,0,14.21-3.34,14.21-10.86c0-5.01-3.34-9.47-11.14-9.47c-5.01,0-10.03,2.23-12.81,4.18l-2.23-6.13
			c3.34-2.51,9.75-5.01,16.71-5.01c12.54,0,18.11,7.52,18.11,15.04c0,6.41-3.9,11.98-11.7,15.04v0.28
			c7.8,1.67,14.21,7.52,14.21,16.44c0,10.31-7.8,18.94-23.12,18.94c-7.24,0-13.37-2.23-16.44-4.18L229.73,902.15z"/>
	</g>
	<g>
		<path d="M253.41,374.53v-17.27h-29.53v-5.57l28.41-40.67h9.19v39.56h8.91v6.69h-8.91v17.27H253.41z M253.41,350.29v-21.17
			c0-3.34,0-6.69,0.28-10.03h-0.28c-1.95,3.62-3.62,6.41-5.29,9.47l-15.6,21.73v0.28h20.89V350.29z"/>
	</g>
	<g>
		<rect x="2.41" y="2512.32" width="2595.74" height="4.92"/>
	</g>
	<g>
		<rect x="53.67" y="229.67" width="90.82" height="1.95"/>
	</g>
	<g>
		<rect x="53.67" y="120.74" width="90.82" height="1.95"/>
	</g>
	<g>
		<rect x="53.67" y="284.27" width="90.82" height="1.95"/>
	</g>
	<g>
		<rect x="53.67" y="175.34" width="90.82" height="1.95"/>
	</g>
	<g>
		<rect x="27.48" y="66.42" class="st2" width="143.19" height="1.95"/>
	</g>
	<g>
		<rect x="2273.36" y="2419.83" class="st2" width="3.9" height="194.45"/>
	</g>
	<g>
		<rect x="1729.02" y="2419.83" class="st2" width="3.9" height="194.45"/>
	</g>
	<g>
		<rect x="2165.55" y="2471.65" width="1.95" height="90.82"/>
	</g>
	<g>
		<rect x="1621.22" y="2471.65" width="1.95" height="90.82"/>
	</g>
	<g>
		<rect x="2056.63" y="2471.65" width="1.95" height="90.82"/>
	</g>
	<g>
		<rect x="1512.29" y="2471.65" width="1.95" height="90.82"/>
	</g>
	<g>
		<rect x="1947.71" y="2471.65" width="1.95" height="90.82"/>
	</g>
	<g>
		<rect x="1403.37" y="2471.65" width="1.95" height="90.82"/>
	</g>
	<g>
		<rect x="1838.78" y="2471.65" width="1.95" height="90.82"/>
	</g>
	<g>
		<rect x="1294.45" y="2471.65" width="1.95" height="90.82"/>
	</g>
	<g>
		<rect x="640.35" y="2419.83" class="st2" width="3.9" height="194.45"/>
	</g>
	<g>
		<rect x="1184.69" y="2419.83" class="st2" width="3.9" height="194.45"/>
	</g>
	<g>
		<rect x="205.77" y="2471.65" width="1.95" height="90.82"/>
	</g>
	<g>
		<rect x="750.11" y="2471.65" width="1.95" height="90.82"/>
	</g>
	<g>
		<rect x="314.69" y="2471.65" width="1.95" height="90.82"/>
	</g>
	<g>
		<rect x="859.03" y="2471.65" width="1.95" height="90.82"/>
	</g>
	<g>
		<rect x="423.62" y="2471.65" width="1.95" height="90.82"/>
	</g>
	<g>
		<rect x="967.95" y="2471.65" width="1.95" height="90.82"/>
	</g>
	<g>
		<rect x="532.54" y="2471.65" width="1.95" height="90.82"/>
	</g>
	<g>
		<rect x="586.86" y="2471.65" width="1.95" height="90.82"/>
	</g>
	<g>
		<rect x="1131.2" y="2471.65" width="1.95" height="90.82"/>
	</g>
	<g>
		<rect x="1675.54" y="2471.65" width="1.95" height="90.82"/>
	</g>
	<g>
		<rect x="2219.88" y="2471.65" width="1.95" height="90.82"/>
	</g>
	<g>
		<rect x="1076.88" y="2471.65" width="1.95" height="90.82"/>
	</g>
	<g>
		<rect x="2110.95" y="2471.65" width="1.95" height="90.82"/>
	</g>
	<g>
		<rect x="1566.61" y="2471.65" width="1.95" height="90.82"/>
	</g>
	<g>
		<rect x="2002.31" y="2443.51" class="st2" width="1.95" height="147.09"/>
	</g>
	<g>
		<rect x="1457.97" y="2443.51" class="st2" width="1.95" height="147.09"/>
	</g>
	<g>
		<rect x="1893.38" y="2471.65" width="1.95" height="90.82"/>
	</g>
	<g>
		<rect x="1349.05" y="2471.65" width="1.95" height="90.82"/>
	</g>
	<g>
		<rect x="1784.46" y="2471.65" width="1.95" height="90.82"/>
	</g>
	<g>
		<rect x="1240.12" y="2471.65" width="1.95" height="90.82"/>
	</g>
	<g>
		<rect x="151.45" y="2471.65" width="1.95" height="90.82"/>
	</g>
	<g>
		<rect x="695.78" y="2471.65" width="1.95" height="90.82"/>
	</g>
	<g>
		<rect x="260.37" y="2471.65" width="1.95" height="90.82"/>
	</g>
	<g>
		<rect x="804.71" y="2471.65" width="1.95" height="90.82"/>
	</g>
	<g>
		<rect x="369.29" y="2443.51" class="st2" width="1.95" height="147.09"/>
	</g>
	<g>
		<rect x="913.35" y="2443.51" class="st2" width="1.95" height="147.09"/>
	</g>
	<g>
		<rect x="477.94" y="2471.65" width="1.95" height="90.82"/>
	</g>
	<g>
		<rect x="1022.28" y="2471.65" width="1.95" height="90.82"/>
	</g>
	<g>
		<path d="M1709.8,2376.93c2.51,1.67,8.08,3.9,13.93,3.9c11.14,0,14.49-6.96,14.49-12.26c0-8.91-8.08-12.81-16.44-12.81h-4.74v-6.41
			h4.74c6.13,0,14.21-3.34,14.21-10.86c0-5.01-3.34-9.47-11.14-9.47c-5.01,0-10.03,2.23-12.81,4.18l-2.23-6.13
			c3.34-2.51,9.75-5.01,16.71-5.01c12.54,0,18.11,7.52,18.11,15.04c0,6.69-3.9,12.26-11.7,15.04v0.28
			c7.8,1.67,14.21,7.52,14.21,16.44c0,10.03-7.8,18.94-23.12,18.94c-7.24,0-13.37-2.23-16.44-4.18L1709.8,2376.93z"/>
	</g>
	<g>
		<path d="M639.79,2332.36L639.79,2332.36l-11.14,5.85l-1.67-6.69l13.93-7.52h7.24v63.52h-8.36V2332.36z"/>
	</g>
	<g>
		<path d="M2280.61,2387.8v-17.27h-29.53v-5.57l28.41-40.67h9.19v39.56h8.91v6.69h-8.91v17.27L2280.61,2387.8L2280.61,2387.8z
			 M2280.61,2363.84v-21.17c0-3.34,0-6.69,0.28-10.03h-0.28c-1.95,3.62-3.62,6.41-5.29,9.47l-15.6,21.73v0.28h20.89V2363.84z"/>
	</g>
	<g>
		<path d="M1167.41,2387.8v-5.29l6.69-6.69c16.16-15.32,23.68-23.68,23.68-33.15c0-6.41-3.06-12.54-12.54-12.54
			c-5.85,0-10.59,3.06-13.37,5.29l-2.79-6.13c4.46-3.62,10.59-6.41,18.11-6.41c13.65,0,19.5,9.47,19.5,18.39
			c0,11.7-8.36,21.17-22.01,33.99l-5.01,4.74v0.28h28.41v7.24L1167.41,2387.8L1167.41,2387.8z"/>
	</g>
	<g>
		<rect x="2384.24" y="2471.65" width="1.95" height="90.82"/>
	</g>
	<g>
		<rect x="2493.16" y="2471.65" width="1.95" height="90.82"/>
	</g>
	<g>
		<rect x="2329.91" y="2471.65" width="1.95" height="90.82"/>
	</g>
	<g>
		<rect x="2438.56" y="2471.65" width="1.95" height="90.82"/>
	</g>
	<g>
		<rect x="2547.48" y="2443.51" class="st2" width="1.95" height="147.09"/>
	</g>
	<g>
		<circle cx="97.68" cy="2515.67" r="11.7"/>
	</g>
</g>
</svg>
